<svg id="Layer_3" height="512" viewBox="0 0 64 64" width="512" xmlns="http://www.w3.org/2000/svg" data-name="Layer 3"><path d="m62 12a5 5 0 0 0 -5-5h-50a5 5 0 0 0 -5 5v32a5 5 0 0 0 5 5h50a5 5 0 0 0 5-5z" fill="#26669e"/><path d="m57 7h-50a4.993 4.993 0 0 0 -1.08.124 4.967 4.967 0 0 0 -.92 2.876v32a5 5 0 0 0 5 5h50a4.993 4.993 0 0 0 1.08-.124 4.967 4.967 0 0 0 .92-2.876v-32a5 5 0 0 0 -5-5z" fill="#307abe"/><path d="m6 11h52v32h-52z" fill="#e4e5e7"/><path d="m8 11h50v30h-50z" fill="#fcfcfc"/><path d="m27 49h10v4h-10z" fill="#18435e"/><path d="m27 50h10v3h-10z" fill="#225980"/><path d="m22 53h20a4 4 0 0 1 4 4 0 0 0 0 1 0 0h-28a0 0 0 0 1 0 0 4 4 0 0 1 4-4z" fill="#18435e"/><path d="m16 39.886h-4a1 1 0 0 1 -1-1v-4h2v3h3z" fill="#f6bf44"/><path d="m52 39.886h-4v-2h3v-3h2v4a1 1 0 0 1 -1 1z" fill="#f6bf44"/><path d="m46 37v-13h-12l-8-7-8 7v13z" fill="#91989d"/><path d="m34 24-7-6.125-7 6.125v13h26v-13z" fill="#aab1b7"/><path d="m34 37v-13h12v13" fill="#26669e"/><path d="m36 24h10v13h-10z" fill="#307abe"/><path d="m34 24h12v4h-12z" fill="#18435e"/><path d="m23 37v-7h6v7" fill="#4aaee3"/><path d="m25 30h4v7h-4z" fill="#7fcdf2"/><circle cx="26" cy="24" fill="#7fcdf2" r="2"/><g fill="#f6bf44"><path d="m13 18.886h-2v-4a1 1 0 0 1 1-1h4v2h-3z"/><path d="m53 18.886h-2v-3h-3v-2h4a1 1 0 0 1 1 1z"/></g></svg>